<?xml version="1.0" encoding="utf-8"?>
<!-- Generator: Adobe Illustrator 16.0.0, SVG Export Plug-In . SVG Version: 6.00 Build 0)  -->
<!DOCTYPE svg PUBLIC "-//W3C//DTD SVG 1.1//EN" "http://www.w3.org/Graphics/SVG/1.1/DTD/svg11.dtd">
<svg version="1.1" id="Layer_1" xmlns="http://www.w3.org/2000/svg" xmlns:xlink="http://www.w3.org/1999/xlink" x="0px" y="0px"
	 width="100px" height="100px" viewBox="0 0 100 100" enable-background="new 0 0 100 100" xml:space="preserve">
<g>
	<g>
		<polyline fill="none" stroke="#000000" stroke-width="0.9921" stroke-miterlimit="10" points="41.731,77.285 20.97,77.285 
			20.97,13.064 58.831,13.064 58.831,41.321 		"/>
		
			<rect x="23.491" y="16.851" fill="none" stroke="#000000" stroke-width="0.9921" stroke-miterlimit="10" width="32.814" height="24.079"/>
		<rect x="23.491" y="45.596" width="3.79" height="1.89"/>
		<rect x="30.742" y="45.596" width="3.79" height="1.89"/>
		<rect x="38" y="45.596" width="3.784" height="1.89"/>
		<rect x="23.491" y="50.785" width="3.79" height="3.79"/>
		<rect x="30.742" y="50.785" width="3.79" height="3.79"/>
		<polygon points="39.386,50.785 38,50.785 38,53.259 		"/>
		<rect x="23.491" y="57.094" width="3.79" height="3.783"/>
		<rect x="30.742" y="57.094" width="3.79" height="3.783"/>
		<rect x="23.491" y="63.402" width="3.79" height="3.783"/>
		<rect x="30.742" y="63.402" width="3.79" height="3.783"/>
		<rect x="23.491" y="69.715" width="3.79" height="3.785"/>
		<rect x="30.742" y="69.715" width="3.79" height="3.785"/>
		<polygon points="38.552,73.5 38,73.5 38,72.428 		"/>
		<polyline fill="none" stroke="#000000" stroke-width="0.2268" stroke-miterlimit="10" points="25.712,37.63 30.742,30.2 
			35.038,28.516 41.414,28.886 45.263,24.379 49.617,24.379 52.914,20.104 		"/>
		<path d="M32.429,30.2c0-0.932-0.752-1.684-1.687-1.684c-0.929,0-1.675,0.752-1.675,1.684c0,0.925,0.746,1.681,1.675,1.681
			C31.676,31.88,32.429,31.125,32.429,30.2z"/>
		<path d="M43.265,28.516c0-0.926-0.758-1.684-1.692-1.684c-0.929,0-1.681,0.758-1.681,1.684c0,0.931,0.752,1.684,1.681,1.684
			C42.507,30.2,43.265,29.447,43.265,28.516z"/>
		<path d="M51.321,24.238c0-0.925-0.746-1.684-1.681-1.684c-0.929,0-1.681,0.758-1.681,1.684c0,0.932,0.752,1.687,1.681,1.687
			C50.575,25.924,51.321,25.169,51.321,24.238z"/>
	</g>
	<g>
		<path d="M58.097,40.589c-12.299,0-22.26,9.96-22.26,22.254c0,12.293,9.96,22.254,22.26,22.254
			c12.294,0,22.248-9.961,22.248-22.254C80.345,50.55,70.391,40.589,58.097,40.589z M58.097,83.51
			c-11.418,0-20.667-9.252-20.667-20.666c0-11.416,9.25-20.668,20.667-20.668c11.406,0,20.661,9.252,20.661,20.668
			C78.758,74.258,69.503,83.51,58.097,83.51z"/>
		
			<line fill="none" stroke="#000000" stroke-width="0.2268" stroke-miterlimit="10" x1="57.362" y1="62.844" x2="43.617" y2="58.889"/>
		
			<line fill="none" stroke="#000000" stroke-width="0.2268" stroke-miterlimit="10" x1="71.542" y1="56.088" x2="59.154" y2="63.236"/>
		<path d="M61.059,62.844c0-1.641-1.328-2.969-2.962-2.969c-1.646,0-2.974,1.328-2.974,2.969c0,1.639,1.328,2.967,2.974,2.967
			C59.73,65.811,61.059,64.482,61.059,62.844z"/>
		<path d="M59.154,45.596c0-0.584-0.476-1.058-1.058-1.058c-0.588,0-1.063,0.473-1.063,1.058c0,0.582,0.476,1.061,1.063,1.061
			C58.679,46.657,59.154,46.178,59.154,45.596z"/>
		<path d="M40.844,61.779c-0.588,0-1.064,0.482-1.064,1.064c0,0.588,0.476,1.062,1.064,1.062c0.587,0,1.058-0.475,1.058-1.062
			C41.901,62.262,41.431,61.779,40.844,61.779z"/>
		<path d="M57.033,80.09c0,0.586,0.476,1.059,1.063,1.059c0.582,0,1.058-0.473,1.058-1.059c0-0.588-0.476-1.061-1.058-1.061
			C57.509,79.029,57.033,79.502,57.033,80.09z"/>
		<path d="M75.338,63.906c0.582,0,1.058-0.475,1.058-1.062c0-0.582-0.476-1.064-1.058-1.064c-0.587,0-1.052,0.482-1.052,1.064
			C74.286,63.432,74.751,63.906,75.338,63.906z"/>
		<path d="M54.647,45.91c-0.147-0.57-0.729-0.902-1.293-0.752c-0.57,0.156-0.899,0.731-0.752,1.301
			c0.152,0.559,0.729,0.899,1.299,0.744C54.465,47.056,54.806,46.475,54.647,45.91z"/>
		<path d="M41.161,66.283c-0.576,0.148-0.905,0.729-0.758,1.299c0.159,0.564,0.74,0.902,1.305,0.746
			c0.564-0.143,0.899-0.729,0.746-1.295C42.307,66.469,41.719,66.129,41.161,66.283z"/>
		<path d="M61.528,79.775c0.153,0.57,0.734,0.9,1.299,0.752c0.57-0.154,0.911-0.73,0.752-1.301
			c-0.146-0.564-0.734-0.902-1.298-0.746C61.717,78.631,61.388,79.213,61.528,79.775z"/>
		<path d="M75.026,59.402c0.564-0.15,0.905-0.729,0.753-1.299c-0.147-0.566-0.735-0.902-1.299-0.746
			c-0.564,0.145-0.899,0.729-0.752,1.296C73.875,59.217,74.463,59.559,75.026,59.402z"/>
		<path d="M50.387,47.376c-0.282-0.508-0.94-0.682-1.451-0.391c-0.505,0.296-0.676,0.94-0.382,1.448
			c0.288,0.508,0.94,0.682,1.451,0.391C50.504,48.528,50.675,47.885,50.387,47.376z"/>
		<path d="M42.618,70.547c-0.494,0.295-0.67,0.941-0.388,1.445c0.306,0.512,0.952,0.686,1.458,0.395s0.682-0.947,0.388-1.451
			C43.782,70.43,43.135,70.256,42.618,70.547z"/>
		<path d="M65.795,78.311c0.3,0.502,0.94,0.682,1.451,0.391c0.512-0.297,0.682-0.947,0.388-1.449
			c-0.299-0.508-0.934-0.688-1.445-0.391C65.678,77.158,65.507,77.801,65.795,78.311z"/>
		<path d="M73.563,55.139c0.506-0.293,0.676-0.945,0.388-1.448c-0.294-0.509-0.952-0.679-1.445-0.385
			c-0.518,0.285-0.693,0.94-0.394,1.442C72.412,55.257,73.053,55.43,73.563,55.139z"/>
		<path d="M46.649,49.897c-0.417-0.415-1.093-0.415-1.504,0c-0.405,0.411-0.411,1.084,0,1.499c0.412,0.414,1.087,0.414,1.504,0
			C47.055,50.981,47.055,50.309,46.649,49.897z"/>
		<path d="M45.145,74.291c-0.405,0.414-0.405,1.08,0,1.498c0.412,0.412,1.087,0.412,1.504,0c0.406-0.418,0.406-1.084,0-1.498
			C46.232,73.877,45.557,73.877,45.145,74.291z"/>
		<path d="M69.538,75.789c0.411,0.412,1.087,0.412,1.499,0c0.417-0.418,0.417-1.084,0-1.498c-0.412-0.414-1.088-0.414-1.499,0
			S69.127,75.371,69.538,75.789z"/>
		<path d="M71.037,51.396c0.417-0.415,0.417-1.088,0-1.499c-0.412-0.415-1.088-0.415-1.499,0c-0.411,0.411-0.411,1.084,0,1.499
			C69.949,51.811,70.625,51.811,71.037,51.396z"/>
		<path d="M43.688,53.306c-0.505-0.297-1.164-0.124-1.458,0.385c-0.282,0.503-0.106,1.155,0.388,1.448
			c0.517,0.291,1.164,0.118,1.458-0.391C44.37,54.246,44.193,53.591,43.688,53.306z"/>
		<path d="M48.554,77.252c-0.294,0.502-0.124,1.152,0.382,1.449c0.511,0.291,1.169,0.111,1.451-0.391
			c0.288-0.51,0.117-1.158-0.382-1.443C49.494,76.564,48.841,76.744,48.554,77.252z"/>
		<path d="M72.506,72.387c0.493,0.291,1.151,0.117,1.445-0.395c0.288-0.504,0.118-1.15-0.388-1.445
			c-0.511-0.291-1.151-0.117-1.451,0.389C71.812,71.439,71.988,72.096,72.506,72.387z"/>
		<path d="M67.634,48.434c0.294-0.508,0.124-1.152-0.388-1.448c-0.511-0.291-1.151-0.118-1.451,0.391
			c-0.288,0.508-0.111,1.152,0.394,1.442C66.7,49.116,67.335,48.942,67.634,48.434z"/>
		<path d="M41.708,57.357c-0.564-0.156-1.146,0.18-1.305,0.746c-0.147,0.57,0.182,1.148,0.758,1.299
			c0.558,0.156,1.146-0.186,1.292-0.749C42.606,58.086,42.271,57.502,41.708,57.357z"/>
		<path d="M52.603,79.227c-0.147,0.57,0.182,1.146,0.752,1.301c0.564,0.148,1.146-0.182,1.293-0.752
			c0.158-0.562-0.183-1.145-0.746-1.295C53.331,78.324,52.755,78.662,52.603,79.227z"/>
		<path d="M74.48,68.328c0.563,0.156,1.151-0.182,1.299-0.746c0.152-0.57-0.188-1.15-0.753-1.299
			c-0.563-0.154-1.151,0.186-1.298,0.75C73.581,67.6,73.916,68.186,74.48,68.328z"/>
		<path d="M63.579,46.459c0.159-0.57-0.182-1.146-0.752-1.301c-0.564-0.15-1.146,0.182-1.299,0.752
			c-0.141,0.564,0.188,1.146,0.753,1.293C62.845,47.359,63.433,47.018,63.579,46.459z"/>
	</g>
</g>
</svg>
