<?xml version="1.0" encoding="utf-8"?>
<!-- Generator: Adobe Illustrator 16.0.0, SVG Export Plug-In . SVG Version: 6.00 Build 0)  -->
<!DOCTYPE svg PUBLIC "-//W3C//DTD SVG 1.1//EN" "http://www.w3.org/Graphics/SVG/1.1/DTD/svg11.dtd">
<svg version="1.1" id="Layer_1" xmlns="http://www.w3.org/2000/svg" xmlns:xlink="http://www.w3.org/1999/xlink" x="0px" y="0px"
	 width="100px" height="100px" viewBox="0 0 100 100" enable-background="new 0 0 100 100" xml:space="preserve">
<g>
	<g>
		<g>
			<g>
				<polyline fill="none" stroke="#3F4040" stroke-width="1.6265" stroke-miterlimit="10" points="10.78,90.025 38.314,62.442 
					62.05,86.165 				"/>
				<g>
					<polygon fill="#3F4040" points="58.36,88.179 66.193,90.275 64.093,82.442 					"/>
				</g>
			</g>
		</g>
		<g>
			<g>
				<polyline fill="none" stroke="#3F4040" stroke-width="1.6265" stroke-miterlimit="10" points="34.182,90.025 61.716,62.442 
					85.445,86.165 				"/>
				<g>
					<polygon fill="#3F4040" points="81.755,88.178 89.588,90.275 87.488,82.442 					"/>
				</g>
			</g>
		</g>
		<g>
			<path fill="none" stroke="#3F4040" stroke-width="1.6265" stroke-miterlimit="10" d="M70.366,24.338
				c-1.086,0-2.144,0.098-3.173,0.266c-2.563-8.405-10.534-14.52-19.956-14.52c-11.515,0-20.838,9.113-20.838,20.362
				c0,1.009,0.077,1.996,0.224,2.956c-0.546-0.056-1.106-0.098-1.681-0.098c-7.824,0-14.163,6.199-14.163,13.84
				c0,7.656,6.339,13.854,14.163,13.854h45.423c10.353,0,18.736-8.209,18.736-18.323C89.103,32.555,80.719,24.338,70.366,24.338z"/>
		</g>
	</g>
</g>
</svg>
