<?xml version="1.0" encoding="utf-8"?>
<!-- Generator: Adobe Illustrator 16.0.0, SVG Export Plug-In . SVG Version: 6.00 Build 0)  -->
<!DOCTYPE svg PUBLIC "-//W3C//DTD SVG 1.1//EN" "http://www.w3.org/Graphics/SVG/1.1/DTD/svg11.dtd">
<svg version="1.1" id="Layer_1" xmlns="http://www.w3.org/2000/svg" xmlns:xlink="http://www.w3.org/1999/xlink" x="0px" y="0px"
	 width="100px" height="100px" viewBox="0 0 100 100" enable-background="new 0 0 100 100" xml:space="preserve">
<g>
	<path fill="none" stroke="#000000" d="M42.343,44.044h6.919c2.468,0,4.304-0.878,5.505-2.637s1.803-4.217,1.803-7.376
		c0-2.768-0.602-5.015-1.803-6.74c-1.201-1.726-2.924-2.589-5.165-2.589c-1.819,0-3.386,0.766-4.702,2.296
		c-1.315,1.53-1.973,3.533-1.973,6.008H29.529l-0.097-0.292c-0.163-5.611,1.681-10.192,5.53-13.745
		c3.849-3.552,8.6-5.328,14.251-5.328c6.431,0,11.564,1.762,15.397,5.286c3.832,3.525,5.749,8.502,5.749,14.934
		c0,3.216-0.828,6.196-2.485,8.94c-1.656,2.746-3.931,4.881-6.821,6.407c3.313,1.364,5.848,3.484,7.602,6.358
		c1.754,2.875,2.631,6.294,2.631,10.257c0,6.464-2.071,11.547-6.212,15.25c-4.142,3.703-9.445,5.555-15.909,5.555
		c-5.685,0-10.573-1.746-14.666-5.238c-4.093-3.491-6.059-8.485-5.896-14.982l0.097-0.292h13.448c0,2.729,0.714,4.986,2.144,6.772
		c1.429,1.787,3.199,2.68,5.311,2.68c2.403,0,4.312-0.901,5.725-2.704s2.119-4.215,2.119-7.235c0-3.768-0.69-6.521-2.07-8.259
		c-1.381-1.737-3.419-2.606-6.115-2.606h-6.919V44.044z"/>
</g>
</svg>
